<?xml version="1.0" encoding="UTF-8" standalone="no"?>
<svg
   xmlns:dc="http://purl.org/dc/elements/1.1/"
   xmlns:cc="http://creativecommons.org/ns#"
   xmlns:rdf="http://www.w3.org/1999/02/22-rdf-syntax-ns#"
   xmlns:svg="http://www.w3.org/2000/svg"
   xmlns="http://www.w3.org/2000/svg"
   viewBox="0 0 496 274.66666"
   height="274.66666"
   width="496"
   xml:space="preserve"
   id="svg2"
   version="1.1"><metadata
     id="metadata8"><rdf:RDF><cc:Work
         rdf:about=""><dc:format>image/svg+xml</dc:format><dc:type
           rdf:resource="http://purl.org/dc/dcmitype/StillImage" /></cc:Work></rdf:RDF></metadata><defs
     id="defs6" /><g
     transform="matrix(1.3333333,0,0,1.3333333,0,1.02e-5)"
     id="g10"><g
       id="g12"><path
         id="path14"
         style="fill:#ffffff;fill-opacity:1;fill-rule:nonzero;stroke:none"
         d="M 36,36 H 336 V 170 H 36 Z" /><path
         id="path16"
         style="fill:none;stroke:#000000;stroke-width:3;stroke-linecap:butt;stroke-linejoin:miter;stroke-miterlimit:10;stroke-dasharray:none;stroke-opacity:1"
         d="m 80,148 c 0,9.941 -8.059,18 -18,18 -9.941,0 -18,-8.059 -18,-18 0,-9.941 8.059,-18 18,-18 9.941,0 18,8.059 18,18" /><text
         id="text20"
         style="font-variant:normal;font-size:14.00024414px;font-family:'Nimbus Roman No9 L';-inkscape-font-specification:NimbusRomNo9L-Regu;writing-mode:lr-tb;fill:#000000;fill-opacity:1;fill-rule:nonzero;stroke:none"
         transform="translate(58.5,151.69922)"><tspan
           id="tspan18"
           y="0"
           x="0">1</tspan></text>
<path
         id="path22"
         style="fill:none;stroke:#000000;stroke-width:3;stroke-linecap:butt;stroke-linejoin:miter;stroke-miterlimit:10;stroke-dasharray:none;stroke-opacity:1"
         d="m 80,58 c 0,9.941 -8.059,18 -18,18 -9.941,0 -18,-8.059 -18,-18 0,-9.941 8.059,-18 18,-18 9.941,0 18,8.059 18,18" /><text
         id="text26"
         style="font-variant:normal;font-size:14.00024414px;font-family:'Nimbus Roman No9 L';-inkscape-font-specification:NimbusRomNo9L-Regu;writing-mode:lr-tb;fill:#000000;fill-opacity:1;fill-rule:nonzero;stroke:none"
         transform="translate(58.5,61.699219)"><tspan
           id="tspan24"
           y="0"
           x="0">2</tspan></text>
<path
         id="path28"
         style="fill:none;stroke:#000000;stroke-width:1;stroke-linecap:butt;stroke-linejoin:miter;stroke-miterlimit:10;stroke-dasharray:none;stroke-opacity:1"
         d="m 62,129.789 c 0,-15.617 0,-37.996 0,-53.601" /><text
         id="text32"
         style="font-variant:normal;font-size:14.00024414px;font-family:'Nimbus Roman No9 L';-inkscape-font-specification:NimbusRomNo9L-Regu;writing-mode:lr-tb;fill:#000000;fill-opacity:1;fill-rule:nonzero;stroke:none"
         transform="translate(40,99.1875)"><tspan
           id="tspan30"
           y="0"
           x="0 6.7481174 10.500183 17.248301">1.5 </tspan></text>
<path
         id="path34"
         style="fill:none;stroke:#000000;stroke-width:3;stroke-linecap:butt;stroke-linejoin:miter;stroke-miterlimit:10;stroke-dasharray:none;stroke-opacity:1"
         d="m 170,94 c 0,9.941 -8.059,18 -18,18 -9.941,0 -18,-8.059 -18,-18 0,-9.941 8.059,-18 18,-18 9.941,0 18,8.059 18,18" /><text
         id="text38"
         style="font-variant:normal;font-size:14.00024414px;font-family:'Nimbus Roman No9 L';-inkscape-font-specification:NimbusRomNo9L-Regu;writing-mode:lr-tb;fill:#000000;fill-opacity:1;fill-rule:nonzero;stroke:none"
         transform="translate(148.5,97.699219)"><tspan
           id="tspan36"
           y="0"
           x="0">3</tspan></text>
<path
         id="path40"
         style="fill:none;stroke:#000000;stroke-width:1;stroke-linecap:butt;stroke-linejoin:miter;stroke-miterlimit:10;stroke-dasharray:none;stroke-opacity:1"
         d="m 77.676,138.594 c 16.519,-9.91 42.375,-25.426 58.828,-35.297" /><text
         id="text44"
         style="font-variant:normal;font-size:14.00024414px;font-family:'Nimbus Roman No9 L';-inkscape-font-specification:NimbusRomNo9L-Regu;writing-mode:lr-tb;fill:#000000;fill-opacity:1;fill-rule:nonzero;stroke:none"
         transform="translate(100.08984,117.14453)"><tspan
           id="tspan42"
           y="0"
           x="0">5</tspan></text>
<path
         id="path46"
         style="fill:none;stroke:#000000;stroke-width:3;stroke-linecap:butt;stroke-linejoin:miter;stroke-miterlimit:10;stroke-dasharray:none;stroke-opacity:1"
         d="m 332,148 c 0,9.941 -8.059,18 -18,18 -9.941,0 -18,-8.059 -18,-18 0,-9.941 8.059,-18 18,-18 9.941,0 18,8.059 18,18" /><text
         id="text50"
         style="font-variant:normal;font-size:14.00024414px;font-family:'Nimbus Roman No9 L';-inkscape-font-specification:NimbusRomNo9L-Regu;writing-mode:lr-tb;fill:#000000;fill-opacity:1;fill-rule:nonzero;stroke:none"
         transform="translate(310.5,151.69922)"><tspan
           id="tspan48"
           y="0"
           x="0">6</tspan></text>
<path
         id="path52"
         style="fill:none;stroke:#000000;stroke-width:1;stroke-linecap:butt;stroke-linejoin:miter;stroke-miterlimit:10;stroke-dasharray:none;stroke-opacity:1"
         d="m 80.125,148 c 46.383,0 169.004,0 215.578,0" /><text
         id="text56"
         style="font-variant:normal;font-size:14.00024414px;font-family:'Nimbus Roman No9 L';-inkscape-font-specification:NimbusRomNo9L-Regu;writing-mode:lr-tb;fill:#000000;fill-opacity:1;fill-rule:nonzero;stroke:none"
         transform="translate(180.91406,144.19922)"><tspan
           id="tspan54"
           y="0"
           x="0">7</tspan></text>
<path
         id="path58"
         style="fill:none;stroke:#000000;stroke-width:1;stroke-linecap:butt;stroke-linejoin:miter;stroke-miterlimit:10;stroke-dasharray:none;stroke-opacity:1"
         d="m 78.93,64.77 c 16.09,6.437 40.152,16.062 56.218,22.488" /><text
         id="text62"
         style="font-variant:normal;font-size:14.00024414px;font-family:'Nimbus Roman No9 L';-inkscape-font-specification:NimbusRomNo9L-Regu;writing-mode:lr-tb;fill:#000000;fill-opacity:1;fill-rule:nonzero;stroke:none"
         transform="translate(100.03906,72.214844)"><tspan
           id="tspan60"
           y="0"
           x="0">4</tspan></text>
<path
         id="path64"
         style="fill:none;stroke:#000000;stroke-width:3;stroke-linecap:butt;stroke-linejoin:miter;stroke-miterlimit:10;stroke-dasharray:none;stroke-opacity:1"
         d="m 260,94 c 0,9.941 -8.059,18 -18,18 -9.941,0 -18,-8.059 -18,-18 0,-9.941 8.059,-18 18,-18 9.941,0 18,8.059 18,18" /><text
         id="text68"
         style="font-variant:normal;font-size:14.00024414px;font-family:'Nimbus Roman No9 L';-inkscape-font-specification:NimbusRomNo9L-Regu;writing-mode:lr-tb;fill:#000000;fill-opacity:1;fill-rule:nonzero;stroke:none"
         transform="translate(238.5,97.699219)"><tspan
           id="tspan66"
           y="0"
           x="0">4</tspan></text>
<path
         id="path70"
         style="fill:none;stroke:#000000;stroke-width:1;stroke-linecap:butt;stroke-linejoin:miter;stroke-miterlimit:10;stroke-dasharray:none;stroke-opacity:1"
         d="m 170.211,94 c 15.617,0 37.996,0 53.601,0" /><text
         id="text74"
         style="font-variant:normal;font-size:14.00024414px;font-family:'Nimbus Roman No9 L';-inkscape-font-specification:NimbusRomNo9L-Regu;writing-mode:lr-tb;fill:#000000;fill-opacity:1;fill-rule:nonzero;stroke:none"
         transform="translate(190.01172,90.199219)"><tspan
           id="tspan72"
           y="0"
           x="0">3</tspan></text>
<path
         id="path76"
         style="fill:none;stroke:#000000;stroke-width:3;stroke-linecap:butt;stroke-linejoin:miter;stroke-miterlimit:10;stroke-dasharray:none;stroke-opacity:1"
         d="m 332,58 c 0,9.941 -8.059,18 -18,18 -9.941,0 -18,-8.059 -18,-18 0,-9.941 8.059,-18 18,-18 9.941,0 18,8.059 18,18" /><text
         id="text80"
         style="font-variant:normal;font-size:14.00024414px;font-family:'Nimbus Roman No9 L';-inkscape-font-specification:NimbusRomNo9L-Regu;writing-mode:lr-tb;fill:#000000;fill-opacity:1;fill-rule:nonzero;stroke:none"
         transform="translate(310.5,61.699219)"><tspan
           id="tspan78"
           y="0"
           x="0">5</tspan></text>
<path
         id="path82"
         style="fill:none;stroke:#000000;stroke-width:1;stroke-linecap:butt;stroke-linejoin:miter;stroke-miterlimit:10;stroke-dasharray:none;stroke-opacity:1"
         d="M 258.34,85.832 C 270.121,79.938 285.957,72.02 297.727,66.137" /><text
         id="text86"
         style="font-variant:normal;font-size:14.00024414px;font-family:'Nimbus Roman No9 L';-inkscape-font-specification:NimbusRomNo9L-Regu;writing-mode:lr-tb;fill:#000000;fill-opacity:1;fill-rule:nonzero;stroke:none"
         transform="translate(271.03125,72.183594)"><tspan
           id="tspan84"
           y="0"
           x="0">8</tspan></text>
<path
         id="path88"
         style="fill:none;stroke:#000000;stroke-width:1;stroke-linecap:butt;stroke-linejoin:miter;stroke-miterlimit:10;stroke-dasharray:none;stroke-opacity:1"
         d="m 256.57,104.926 c 12.492,9.371 30.395,22.797 42.883,32.164" /><text
         id="text92"
         style="font-variant:normal;font-size:14.00024414px;font-family:'Nimbus Roman No9 L';-inkscape-font-specification:NimbusRomNo9L-Regu;writing-mode:lr-tb;fill:#000000;fill-opacity:1;fill-rule:nonzero;stroke:none"
         transform="translate(266.75805,132.20703)"><tspan
           id="tspan90"
           y="0"
           x="0 6.7481174">6 </tspan></text>
</g></g></svg>